<?xml version="1.0" encoding="utf-8"?>
<svg version="1.1" id="Layer_1" x="0px" y="0px" width="100%" viewBox="0 0 1973 878" enable-background="new 0 0 1973 878" xmlns="http://www.w3.org/2000/svg">
  <path fill="#0D9C57" opacity="1.000000" stroke="none" d=" M443.737976,661.380920 C431.273682,645.866699 418.774963,630.379944 406.356750,614.828857 C397.519440,603.762146 388.821869,592.583923 380.004669,581.501038 C370.703217,569.809387 361.303162,558.196289 352.000305,546.505859 C332.682800,522.230408 313.412842,497.917267 294.100769,473.637543 C279.684357,455.512878 265.246643,437.405090 250.791779,419.311066 C240.025864,405.834717 229.209839,392.398376 218.445938,378.920441 C217.779205,378.085571 217.373322,377.042358 216.034943,374.640289 C226.490051,372.647430 236.031464,370.646362 245.643082,369.074707 C250.351364,368.304840 255.194641,367.997375 259.969025,368.061371 C275.831818,368.274017 291.572083,370.022400 306.933777,373.969788 C323.576935,378.246429 340.360718,382.311157 356.509094,388.076294 C370.467804,393.059692 383.791077,399.958313 397.096497,406.608032 C424.594421,420.350830 447.458221,440.231445 467.934845,462.758972 C482.309967,478.573883 494.601562,496.072449 505.019592,514.854004 C516.214294,535.035706 526.043884,555.830872 533.186584,577.759766 C537.440735,590.820374 540.877197,604.185669 543.957581,617.580383 C547.596741,633.405518 550.721802,649.362549 553.576660,665.350464 C556.378235,681.040283 558.486389,696.852600 561.042297,712.587830 C562.673523,722.629822 564.675415,732.611572 566.314209,742.652405 C568.642151,756.915405 570.769165,771.211060 573.024170,785.486084 C573.793152,790.354431 574.727661,795.196472 575.505859,800.063416 C575.783752,801.801147 575.823242,803.577026 576.084290,806.672424 C569.305969,805.220581 563.260864,804.133972 557.325928,802.616333 C537.769714,797.615601 518.271057,792.389832 498.715027,787.388062 C487.279083,784.463135 475.732239,781.968018 464.313263,778.981384 C445.281403,774.003418 426.360229,768.598145 407.303680,763.719604 C385.942383,758.251099 365.190460,750.889648 345.408325,741.403625 C328.455505,733.274231 312.338776,723.322021 296.192078,713.611023 C276.672363,701.871399 259.655060,686.915039 244.013046,670.443848 C227.066788,652.599426 212.730362,632.809265 201.030151,611.129456 C191.025467,592.591431 182.935410,573.219543 177.602371,552.880005 C173.700516,537.998779 170.078522,522.874451 168.378082,507.630249 C166.416962,490.049408 165.741974,472.183075 166.376694,454.507812 C166.758118,443.886078 170.746857,433.401276 172.989990,422.828552 C173.242065,421.640442 173.121109,419.944763 172.435608,419.048553 C152.454880,392.926178 132.404434,366.856964 112.286316,340.840149 C110.078773,337.985382 109.324158,336.027283 113.185722,333.858643 C118.611664,330.811462 123.759087,327.268280 129.294083,323.767426 C134.552948,329.774109 139.758545,335.507904 144.730484,341.437653 C161.204742,361.085571 177.482666,380.899139 194.059570,400.459564 C203.890167,412.059448 214.200806,423.251129 224.188538,434.719574 C236.833252,449.238800 249.274063,463.936371 261.983337,478.398346 C271.466827,489.189667 281.319794,499.655518 290.857635,510.399994 C302.627502,523.658936 314.025208,537.253967 325.983673,550.338196 C337.786713,563.252441 349.932434,575.865173 362.231445,588.310059 C369.412201,595.575989 377.196228,602.244812 384.694397,609.197876 C403.439453,626.580322 422.174713,643.973328 440.928955,661.345886 C441.268829,661.660767 441.795898,661.773560 442.630249,662.340332 C443.459015,663.042603 443.893158,663.385315 444.327271,663.728027 C444.130798,662.945679 443.934387,662.163269 443.737976,661.380920 z"/>
  <path fill="#D97800" opacity="1.000000" stroke="none" d=" M344.254272,142.250061 C353.610199,135.869553 362.685822,129.710953 371.810547,123.625931 C384.239105,115.337646 397.693848,109.036484 411.711304,104.063278 C423.693634,99.812088 435.719879,95.247353 448.112915,92.700996 C463.821930,89.473320 479.884186,87.786072 495.866211,86.130928 C505.895264,85.092285 516.089355,84.669685 526.150879,85.163521 C539.438232,85.815697 552.727844,87.214264 565.905579,89.076820 C578.333862,90.833443 590.844482,92.788094 602.915100,96.118835 C622.727783,101.585899 642.263550,108.083488 661.825134,114.426872 C685.706360,122.171028 709.532043,130.091431 733.308167,138.152664 C749.372864,143.599365 765.310791,149.419907 781.304443,155.075989 C783.220215,155.753479 785.129883,156.448288 787.978271,157.471176 C782.801208,163.106369 778.180725,168.077026 773.624390,173.105820 C757.711243,190.668961 741.851685,208.280777 725.909607,225.817673 C715.364014,237.418304 704.876221,249.078613 694.065613,260.429504 C680.956970,274.193268 667.996216,288.151031 654.136414,301.133392 C635.568665,318.525543 615.689941,334.424316 593.057373,346.374786 C577.938599,354.357819 562.782776,362.391876 547.104797,369.154022 C535.651611,374.093933 523.538330,378.067108 511.328735,380.552277 C494.617798,383.953583 477.897583,388.028687 460.498718,387.116821 C448.826782,386.505096 437.045135,387.683289 425.407684,386.803101 C414.346405,385.966522 403.376434,383.675018 392.424042,381.702698 C374.648499,378.501648 357.624054,372.636017 340.921814,365.967224 C318.564362,357.040527 297.256195,346.165527 279.818848,329.060211 C276.321564,325.629486 273.419250,321.592224 269.273712,316.688538 C327.664917,297.432922 384.607361,278.767212 441.473145,259.870880 C498.148956,241.037659 554.747925,221.973053 611.380615,203.009872 C611.271912,202.581680 611.163269,202.153473 611.054626,201.725266 C608.352173,202.139465 605.639832,202.497711 602.948914,202.976837 C584.421997,206.275543 565.904358,209.626816 547.374268,212.907455 C530.144836,215.957809 512.827820,218.569717 495.690094,222.064758 C480.195282,225.224792 464.842682,229.129761 449.514404,233.046783 C430.657043,237.865601 411.869873,242.963913 393.091156,248.083771 C381.423370,251.264908 369.851135,254.795227 358.193665,258.015717 C342.182739,262.438873 326.094971,266.586914 310.112030,271.107147 C300.866760,273.721832 291.801147,276.965485 282.586853,279.697174 C266.188751,284.558624 249.710236,289.149719 233.323593,294.048706 C225.518570,296.382080 217.898315,299.330597 210.103516,301.701874 C198.432587,305.252319 186.679596,308.532745 174.965729,311.942505 C170.970978,313.105316 169.571472,309.926514 168.332047,307.473846 C166.057770,302.973419 164.361786,298.180725 162.148117,292.842896 C165.257858,291.598236 168.481888,290.191223 171.785492,289.006073 C184.981934,284.271942 198.189957,279.569275 211.418701,274.926239 C225.723679,269.905487 240.088470,265.052155 254.337616,259.879150 C256.159607,259.217712 258.388550,257.311890 258.829803,255.576050 C263.586365,236.863892 273.498413,220.871368 284.250519,205.172928 C296.540314,187.229401 311.340851,171.565948 326.978149,156.638687 C332.299255,151.559189 338.303680,147.195511 344.254272,142.250061 z"/>
  <path fill="#D97800" opacity="1.000000" stroke="none" d=" M750.833862,405.749756 C756.079651,389.687042 761.092285,373.971466 766.337402,358.333923 C772.453125,340.100922 778.891724,321.976074 784.974792,303.732422 C794.157715,276.192108 803.105347,248.573380 812.244019,221.018219 C820.461182,196.242035 828.747986,171.488373 837.209534,146.795166 C837.759399,145.190491 839.920837,143.351868 841.586121,143.057800 C847.400757,142.031021 853.320190,141.194336 859.211914,141.108185 C866.980713,140.994583 874.771973,142.070267 882.532715,141.861282 C889.096497,141.684525 891.234558,145.611465 892.872070,150.679855 C899.937256,172.548492 907.002319,194.417206 914.097412,216.276184 C918.763184,230.650574 923.412598,245.030884 928.194397,259.366821 C932.378296,271.910217 936.820740,284.367401 940.994995,296.913849 C945.464844,310.348755 949.678162,323.868927 954.145447,337.304688 C958.313293,349.839935 962.769958,362.279419 966.912292,374.822876 C971.400879,388.415131 975.654175,402.084991 980.052307,415.707367 C981.198914,419.258667 982.125061,422.956604 983.835632,426.230194 C985.723389,429.842804 983.792542,431.923523 981.222107,432.750183 C969.481750,436.526154 957.674133,438.461182 945.704041,433.088928 C938.991516,430.076324 936.327942,424.002808 934.215088,418.020599 C929.659607,405.122437 925.996643,391.910431 921.888184,378.852112 C920.615967,374.808502 918.898987,370.899719 917.731201,366.830048 C916.825989,363.675385 915.025879,362.893829 911.921265,362.939850 C891.610291,363.241150 871.296814,363.473114 850.983826,363.510010 C838.003479,363.533600 825.021179,363.242188 812.042664,362.957855 C808.977783,362.890747 807.596313,363.614014 806.599243,366.983490 C803.172058,378.565369 799.003235,389.925323 795.295471,401.427368 C792.246216,410.886566 789.597290,420.477234 786.407532,429.886414 C785.831543,431.585632 783.717896,433.381775 781.935913,433.952759 C771.082397,437.430603 760.137878,435.860413 749.330200,433.603485 C741.715088,432.013275 741.843140,431.694977 744.591797,424.221100 C746.787964,418.249664 748.677734,412.165527 750.833862,405.749756 M884.909729,262.700348 C883.957031,260.085938 882.840515,257.518372 882.077515,254.849747 C875.967407,233.480606 869.951965,212.084351 863.785278,190.731705 C863.450317,189.571945 862.023315,188.727570 860.652527,187.248520 C850.263611,235.028625 833.567261,279.834198 819.791504,325.691223 C848.587158,325.691223 876.645813,325.691223 904.810242,325.691223 C898.140625,304.755768 891.570068,284.131134 884.909729,262.700348 z"/>
  <path fill="#D97800" opacity="1.000000" stroke="none" d=" M1251.999756,491.000000 C1251.999756,403.528687 1251.999390,316.557373 1252.000488,229.586044 C1252.000610,222.245834 1252.246216,222.004181 1259.598999,222.000137 C1264.264160,221.997559 1268.942261,221.776520 1273.591553,222.047867 C1282.721069,222.580658 1288.384644,228.348434 1292.010376,236.115417 C1292.896973,238.014557 1293.521851,240.035828 1294.343140,242.201981 C1300.154297,237.857162 1305.383789,233.411041 1311.127075,229.776871 C1320.107178,224.094543 1329.724854,219.541199 1340.577026,219.074326 C1349.445557,218.692795 1358.484741,218.014389 1367.191284,219.261566 C1377.093872,220.680023 1385.939087,225.592178 1393.556396,232.349182 C1404.504395,242.060837 1410.968872,254.366348 1416.257080,267.908936 C1426.180176,293.321533 1425.775879,319.711060 1424.698120,346.033142 C1424.121338,360.120148 1419.913818,373.852539 1414.002075,386.980682 C1408.322632,399.593323 1400.927002,410.747711 1390.437500,419.720856 C1379.765503,428.850159 1367.495361,434.246185 1353.409180,436.119293 C1334.375122,438.650299 1316.946167,434.311615 1300.223877,425.669861 C1295.414795,423.184662 1295.016235,423.451935 1295.010742,428.940857 C1294.986938,453.099548 1295.000610,477.258270 1295.000244,501.416962 C1295.000000,516.590942 1287.433105,524.470398 1272.234253,524.975037 C1267.574341,525.129822 1262.904907,525.011597 1258.239746,524.995789 C1253.929932,524.981201 1251.972778,522.731201 1251.989380,518.491089 C1252.024780,509.494202 1251.999878,500.497040 1251.999756,491.000000 M1371.032593,274.547028 C1369.271484,271.828979 1367.696655,268.965881 1365.714600,266.419739 C1359.466919,258.393890 1350.857666,254.128311 1340.988281,254.527069 C1326.500488,255.112381 1313.946899,261.106201 1303.865967,271.717896 C1297.969604,277.924713 1294.489380,284.590485 1294.729370,294.020630 C1295.471069,323.163055 1295.067627,352.336731 1294.919556,381.497314 C1294.899902,385.378021 1296.366699,387.565460 1299.625366,389.300873 C1310.178345,394.920929 1320.460327,401.291901 1333.034180,401.042908 C1338.158569,400.941437 1343.543213,401.388580 1348.336060,399.977844 C1356.386841,397.608246 1362.379883,391.925751 1367.026855,384.906097 C1377.360229,369.297028 1379.723511,351.473755 1380.860352,333.465729 C1381.357910,325.584686 1380.361450,317.606842 1380.002197,309.674805 C1379.455078,297.596710 1376.828491,286.019379 1371.032593,274.547028 z"/>
  <path fill="#D97800" opacity="1.000000" stroke="none" d=" M1053.528809,223.090149 C1062.725098,226.383759 1066.032593,234.119629 1069.102783,242.583801 C1072.493042,239.857391 1075.494507,237.657990 1078.252441,235.186752 C1087.630737,226.783386 1098.957520,221.590607 1110.892822,219.398224 C1132.425171,215.442993 1153.140747,217.942719 1170.182983,233.754074 C1178.078491,241.079407 1183.455322,250.202850 1187.979736,259.878540 C1193.779541,272.281860 1197.236206,285.512390 1198.437378,298.929932 C1199.773682,313.856415 1198.984009,328.975372 1199.071411,344.010803 C1199.149170,357.356964 1195.699097,370.065704 1190.895020,382.279266 C1181.875977,405.208099 1167.536621,423.673615 1143.636475,432.560150 C1133.143066,436.461761 1122.159180,437.388245 1110.696777,436.469666 C1096.486328,435.330902 1083.925171,430.276672 1070.788330,423.533813 C1070.475830,425.945404 1070.034790,427.780457 1070.031128,429.616364 C1069.984375,453.113800 1070.223633,476.615082 1069.831543,500.106079 C1069.741943,505.480286 1068.487793,511.306030 1066.069214,516.058655 C1062.555420,522.963318 1055.260132,524.581116 1048.009644,524.948853 C1042.856812,525.210327 1037.676392,524.879578 1032.515137,525.038940 C1028.637939,525.158630 1027.170776,523.150879 1027.010132,519.658569 C1026.964111,518.660767 1026.999878,517.659119 1026.999878,516.659241 C1026.999756,421.002594 1026.999512,325.345978 1027.000488,229.689331 C1027.000610,222.001816 1027.007568,221.875580 1034.881226,222.040283 C1040.968994,222.167618 1047.048950,222.662292 1053.528809,223.090149 M1153.982300,301.657043 C1153.662109,300.558594 1153.120361,299.472931 1153.056030,298.359680 C1152.413452,287.246216 1147.982422,277.656372 1141.926270,268.487274 C1135.633423,258.959839 1126.309692,254.183945 1115.797241,254.433258 C1099.478271,254.820312 1086.035889,262.848602 1075.491455,275.233215 C1072.378174,278.889832 1069.783203,282.785614 1069.842896,288.429169 C1070.171997,319.582794 1070.061279,350.741913 1069.915894,381.898315 C1069.899658,385.398041 1071.093262,387.627502 1074.046265,388.980438 C1082.465698,392.837769 1090.659546,397.507996 1099.457153,400.129517 C1108.231689,402.744080 1117.700073,403.093201 1126.393677,398.790009 C1134.275146,394.888763 1140.077881,388.547394 1144.404907,381.039062 C1152.833252,366.413910 1154.738281,349.980255 1155.755371,333.658508 C1156.396606,323.367249 1154.664551,312.928070 1153.982300,301.657043 z"/>
  <path fill="#0D9C57" opacity="1.000000" stroke="none" d=" M659.695557,591.132507 C656.836182,583.656616 653.907532,576.550293 651.687073,569.229065 C647.668518,555.979187 650.312317,543.043579 654.909119,530.511047 C661.248474,513.227844 672.794739,499.959106 688.299316,490.285706 C698.832153,483.714172 710.535095,480.009766 722.791992,477.987854 C733.096191,476.287994 743.320557,475.122986 753.813232,476.860718 C763.056458,478.391479 772.686523,478.075195 781.709839,480.323944 C793.562134,483.277679 804.991028,487.934601 816.591919,491.888824 C818.458557,492.525116 820.312866,493.228210 822.103699,494.051086 C830.732422,498.015900 832.359314,500.847778 828.504395,509.557373 C825.363220,516.654236 820.852905,523.181213 816.540771,529.689941 C815.777161,530.842651 812.717224,531.491394 811.211182,530.963928 C803.472290,528.253540 795.977722,524.846558 788.241516,522.127502 C775.992798,517.822449 763.687805,514.086792 750.401611,513.819702 C738.616882,513.582703 727.090881,513.804810 716.442810,519.321777 C707.468140,523.971741 699.282776,529.938599 696.924194,540.492920 C693.189270,557.206177 696.670044,571.772888 714.524231,580.144043 C737.059631,590.710083 759.947083,600.522644 782.561218,610.924377 C797.014221,617.572449 810.342102,626.007385 820.761169,638.310303 C829.873596,649.070190 835.639526,661.166748 837.193054,675.540405 C838.627258,688.809448 837.740845,701.627136 832.990051,713.931213 C825.250244,733.976379 811.806091,748.789307 791.628418,757.242310 C775.240173,764.107849 758.159424,766.438904 740.562073,767.113892 C721.419373,767.848206 702.696899,765.838440 684.571716,759.858215 C668.949707,754.703979 654.210266,747.455322 640.818726,737.780579 C639.609863,736.907227 638.885437,734.250305 639.154541,732.623291 C641.024963,721.316223 646.465393,711.836243 655.242554,704.531067 C656.559570,703.434998 660.193176,703.526550 661.752869,704.568726 C674.974792,713.403320 689.227661,720.084534 704.383301,724.570190 C720.782104,729.423767 737.615601,732.199890 754.708313,728.901855 C768.443176,726.251709 781.122559,721.109802 787.769531,707.566711 C791.317993,700.336853 792.954224,692.769409 790.827148,684.244507 C786.341003,666.265259 773.183655,657.048706 757.898804,650.001343 C739.992615,641.745422 721.676270,634.381775 703.726685,626.216003 C690.371826,620.140503 677.745239,612.771423 667.976074,601.437805 C665.181152,598.195374 662.616089,594.754822 659.695557,591.132507 z"/>
  <path fill="#0D9C57" opacity="1.000000" stroke="none" d=" M886.000000,700.000000 C886.000000,622.340942 885.999329,545.181946 886.001038,468.022919 C886.001221,460.753357 886.713745,460.016693 893.913818,460.007599 C898.912292,460.001312 904.066101,459.284363 908.879944,460.243195 C922.544739,462.964996 927.366333,467.250580 927.778259,483.477722 C928.547607,513.788513 927.999878,544.132751 928.000061,574.463074 C928.000061,576.441711 928.000000,578.420349 928.000000,581.308594 C933.101501,577.713501 937.534851,574.535583 942.022461,571.436279 C958.910645,559.772888 977.737793,554.442261 998.073242,556.148132 C1020.037292,557.990662 1031.731567,566.976379 1040.985229,588.642822 C1045.793945,599.901672 1046.863647,611.929871 1046.937134,623.973633 C1047.125610,654.802795 1047.124756,685.634583 1046.939209,716.463806 C1046.864014,728.952942 1048.442993,741.102234 1051.978027,753.064392 C1052.355713,754.342651 1051.722290,756.778442 1050.722046,757.471985 C1040.906006,764.278259 1030.123047,766.665222 1018.378662,763.684570 C1009.137939,761.339355 1004.170166,752.572388 1004.092896,741.239685 C1003.844177,704.744934 1004.189331,668.245789 1003.848999,631.752563 C1003.776184,623.940918 1002.205322,616.056702 1000.554199,608.371399 C998.993774,601.107727 990.781128,595.615906 982.932068,594.939758 C974.967834,594.253662 967.404541,596.030701 960.117798,598.572632 C948.661316,602.569214 938.500854,608.953796 930.246582,617.970520 C928.917236,619.422607 928.097412,621.909729 928.091858,623.921265 C927.971619,667.749939 928.000671,711.579041 927.999390,755.408020 C927.999207,762.282715 928.009460,762.688538 921.124390,762.928772 C910.914734,763.285095 900.682617,762.993958 890.460083,762.988098 C886.704041,762.985962 885.926514,760.862610 885.946472,757.494690 C886.059204,738.497009 886.000366,719.498352 886.000000,700.000000 z"/>
  <path fill="#D97800" opacity="1.000000" stroke="none" d=" M1776.037109,488.049744 C1786.328613,482.283661 1792.223511,473.149292 1796.909302,463.199707 C1800.164551,456.288086 1802.746338,449.055450 1805.535522,441.929718 C1807.268188,437.503082 1805.914795,435.765381 1801.265503,434.948975 C1785.981445,432.265076 1779.318970,429.018250 1773.894775,410.969116 C1768.572998,393.260895 1762.853027,375.672546 1757.496704,357.974487 C1750.559448,335.053345 1743.849609,312.063507 1736.964722,289.126465 C1732.371826,273.824860 1727.651733,258.561371 1722.970703,243.286316 C1721.773315,239.378876 1720.383545,235.526123 1719.311890,231.585724 C1718.405640,228.253418 1718.564331,225.686386 1723.130249,224.881042 C1729.668335,223.727814 1736.054810,221.735397 1742.533569,220.219162 C1748.245850,218.882309 1758.965210,223.311722 1761.888184,229.307037 C1765.527100,236.770752 1768.157349,244.746933 1770.923218,252.607391 C1772.483154,257.041077 1773.333862,261.718872 1774.686890,266.231842 C1781.011841,287.328125 1787.507324,308.373962 1793.723022,329.502136 C1797.034668,340.758698 1800.060669,352.105957 1802.925415,363.485382 C1805.835205,375.044342 1808.317627,386.710693 1811.190063,398.279602 C1811.535645,399.671753 1813.149536,400.748993 1814.175537,401.972168 C1815.054443,400.788330 1816.385376,399.726624 1816.743164,398.402008 C1820.878540,383.094116 1824.921631,367.760651 1828.880859,352.405975 C1834.876465,329.153290 1840.803345,305.882843 1846.726685,282.611572 C1850.550659,267.587982 1854.312134,252.548462 1858.110352,237.518265 C1859.075195,233.699951 1859.726929,229.748001 1861.207642,226.138397 C1861.905029,224.438248 1864.221191,222.254822 1865.807617,222.251724 C1876.578003,222.230698 1887.418091,222.112045 1898.095825,223.290710 C1904.911865,224.043060 1905.712769,226.869980 1903.668579,233.753922 C1898.141479,252.366516 1892.590332,270.972626 1887.206055,289.626709 C1883.184570,303.558868 1879.368896,317.550964 1875.532715,331.535889 C1871.603027,345.862213 1867.881348,360.246613 1863.843018,374.541901 C1860.204468,387.421997 1856.323364,400.234924 1852.435059,413.042816 C1847.700195,428.640167 1843.334351,444.373322 1837.922607,459.735504 C1830.722290,480.174652 1821.078491,499.296631 1802.910645,512.537598 C1792.911743,519.824890 1781.698364,524.192627 1769.265015,524.974976 C1761.663574,525.453247 1754.017822,526.228027 1746.442505,525.850769 C1738.104980,525.435730 1729.753174,524.231445 1721.542847,522.663208 C1714.480591,521.314148 1713.306519,519.413513 1714.062622,512.071899 C1714.958008,503.376953 1717.197144,495.060394 1723.178345,487.924530 C1735.403809,492.657837 1748.172607,493.707581 1760.983765,492.789886 C1765.960693,492.433350 1770.769653,489.730072 1776.037109,488.049744 z"/>
  <path fill="#0D9C57" opacity="1.000000" stroke="none" d=" M1114.732178,585.811646 C1122.940918,575.421448 1132.085205,566.533752 1144.098022,561.536560 C1151.727905,558.362671 1159.766113,555.102112 1167.856201,554.323608 C1185.083984,552.665894 1202.125488,554.454102 1218.004761,562.472412 C1238.398193,572.770081 1251.052124,589.119080 1257.179443,611.003235 C1260.592041,623.191895 1262.353027,635.534607 1261.892212,648.107178 C1261.621826,655.482666 1260.149048,662.806946 1259.467651,670.177307 C1259.086304,674.302246 1256.977905,675.090637 1253.197266,675.076904 C1217.384766,674.947205 1181.571533,674.999939 1145.758545,675.000061 C1143.778442,675.000061 1141.798218,675.000000 1139.028687,675.000000 C1139.028687,678.592102 1138.400635,681.997864 1139.150513,685.067017 C1141.130859,693.172607 1143.130493,701.359924 1146.177734,709.099121 C1151.317383,722.152649 1161.810669,728.717896 1175.364624,731.021851 C1189.688599,733.456604 1203.616943,731.912720 1217.168457,727.003967 C1224.710083,724.272339 1232.022583,720.912415 1239.536377,718.097351 C1240.827148,717.613708 1243.123535,717.882812 1244.083984,718.759216 C1250.812622,724.898132 1253.647217,733.201965 1255.812500,741.700623 C1256.106812,742.855774 1254.716064,745.101746 1253.492798,745.881470 C1238.100586,755.693542 1221.731812,763.179382 1203.322754,764.952026 C1192.708862,765.974060 1182.011597,767.120789 1171.386963,766.846436 C1144.700928,766.157227 1124.034180,754.264587 1110.131836,731.317627 C1101.746826,717.477478 1097.790039,702.109253 1096.037231,686.177429 C1095.045166,677.159729 1093.807861,668.038818 1094.195679,659.029541 C1094.808472,644.791931 1095.783569,630.622986 1100.305054,616.707092 C1103.852661,605.788940 1108.535522,595.721436 1114.732178,585.811646 M1139.927612,642.742249 C1166.064575,642.792419 1192.201660,642.845581 1218.338623,642.868103 C1218.774536,642.868469 1219.210815,642.498535 1220.288574,642.011292 C1219.866943,636.597351 1219.436523,631.030762 1218.999268,625.464722 C1217.811157,610.338745 1208.318359,590.578430 1188.661011,587.178345 C1175.021484,584.819214 1163.006226,586.927856 1153.511719,597.152588 C1141.817993,609.745728 1139.213135,625.582520 1139.927612,642.742249 z"/>
  <path fill="#0D9C57" opacity="1.000000" stroke="none" d=" M1442.999268,675.000000 C1409.531250,675.000000 1376.563110,675.000000 1342.664551,675.000000 C1344.183716,683.623474 1345.059204,691.772400 1347.126831,699.606689 C1350.481079,712.315918 1358.151733,726.641785 1376.637695,730.324585 C1396.390137,734.259705 1414.551514,730.472961 1432.540649,723.150269 C1436.047241,721.722839 1439.748779,720.504883 1442.853638,718.431335 C1446.302124,716.128174 1448.917480,717.603882 1450.255737,720.060669 C1453.844604,726.649292 1456.957397,733.525757 1459.759521,740.489014 C1460.280273,741.782898 1458.988770,744.706238 1457.655273,745.705688 C1445.214600,755.029968 1430.973389,760.555420 1415.956665,763.890503 C1401.742065,767.047546 1387.184326,768.163391 1372.700195,766.872192 C1350.884155,764.927490 1332.400269,756.172485 1319.004517,738.099915 C1308.556396,724.004028 1303.276733,707.830017 1301.223999,690.804077 C1299.524414,676.706543 1298.606812,662.337280 1299.250366,648.175171 C1300.279541,625.528259 1306.176880,604.034729 1319.901245,585.362793 C1330.536133,570.894104 1344.243530,561.188904 1361.939453,556.755859 C1376.412598,553.130127 1390.376099,553.368530 1404.924072,556.692810 C1435.764771,563.739746 1453.909790,582.928833 1462.114624,612.771179 C1466.025024,626.993958 1467.017212,641.314514 1465.077881,655.915649 C1464.448486,660.653748 1464.257446,665.457153 1464.025024,670.238403 C1463.863647,673.556274 1462.241211,675.024475 1458.997192,675.003418 C1453.831299,674.969849 1448.665161,674.997925 1442.999268,675.000000 M1386.224243,586.007874 C1372.002686,585.303467 1360.523804,591.262451 1353.338623,602.906189 C1346.048462,614.719971 1343.060303,628.298767 1343.991333,642.724915 C1370.612305,642.724915 1397.030029,642.724915 1423.671997,642.724915 C1423.903931,641.424927 1424.357544,640.165649 1424.313721,638.923828 C1423.982788,629.544067 1423.738037,620.214539 1420.108276,611.245667 C1416.821045,603.123108 1412.606445,595.645203 1404.765381,591.598755 C1399.365723,588.812256 1393.038696,587.822571 1386.224243,586.007874 z"/>
  <path fill="#D97800" opacity="1.000000" stroke="none" d=" M1600.136230,256.925659 C1598.883179,256.284149 1597.620361,255.070770 1596.378784,255.092102 C1586.950195,255.254242 1577.524414,255.622620 1568.101074,256.006287 C1564.947266,256.134705 1562.941284,255.300598 1562.978149,251.643631 C1563.057251,243.781815 1563.261597,235.906464 1562.898193,228.060593 C1562.685303,223.463654 1564.784180,222.868988 1568.573364,222.939850 C1578.197266,223.119827 1587.826660,222.999664 1598.165649,222.999664 C1597.725708,216.997696 1597.624390,211.421494 1596.856812,205.938553 C1594.624390,189.992111 1594.863892,174.445938 1600.364014,158.932709 C1605.843506,143.476868 1615.639404,132.228195 1630.226807,125.529228 C1641.627686,120.293526 1653.791626,117.723732 1666.567993,119.908577 C1670.615479,120.600761 1674.781250,120.932816 1678.887085,120.887596 C1689.746826,120.768013 1699.840088,124.256187 1710.126953,126.952293 C1713.611694,127.865654 1715.307617,129.151855 1715.145752,133.313812 C1714.828613,141.472290 1712.615601,148.871979 1707.766724,155.287735 C1706.607666,156.821121 1703.480469,157.944672 1701.531250,157.619858 C1692.194702,156.064011 1683.017090,152.852798 1673.659790,152.294022 C1660.913208,151.532837 1648.745117,154.239319 1641.749390,166.887985 C1640.438843,169.257645 1639.336548,172.006042 1639.110840,174.662323 C1638.463013,182.286133 1637.926514,189.960236 1638.081787,197.599594 C1638.228638,204.826385 1639.654663,212.024582 1639.855713,219.253799 C1639.989868,224.080505 1642.802246,224.055573 1646.075562,223.989410 C1661.669556,223.674164 1677.262085,223.281769 1692.856934,223.021301 C1700.378052,222.895660 1701.581055,223.657410 1701.864868,230.950180 C1702.127563,237.699860 1701.278564,244.488007 1701.045410,251.263550 C1700.905396,255.331772 1698.498413,256.110779 1695.056763,256.023499 C1679.795288,255.636459 1664.523315,255.534241 1649.273560,254.891342 C1643.959839,254.667328 1642.906860,256.719360 1642.918213,261.508301 C1643.047241,315.822632 1643.000244,370.137421 1643.000244,424.452057 C1643.000244,433.652496 1643.033569,434.335480 1633.894653,434.781433 C1623.996216,435.264435 1614.021973,434.405731 1604.092285,433.903503 C1601.250854,433.759796 1599.824341,431.905792 1599.963135,428.793823 C1600.391724,419.179169 1600.651123,409.557007 1600.962402,399.037903 C1600.965088,352.662262 1600.990356,307.186462 1600.961670,261.710693 C1600.960571,260.115509 1600.423340,258.520660 1600.136230,256.925659 z"/>
  <path fill="#0D9C57" opacity="1.000000" stroke="none" d=" M1671.398193,760.705322 C1661.636841,756.308899 1652.207397,752.142273 1642.869263,747.779846 C1641.970825,747.360107 1640.932739,745.541321 1641.155151,744.680847 C1643.632935,735.089172 1646.355835,725.528748 1654.086304,718.581482 C1654.949219,717.806091 1657.113647,717.684875 1658.290283,718.177612 C1668.118530,722.293640 1677.747070,726.901672 1687.651855,730.814819 C1698.106934,734.945374 1709.085327,735.783691 1720.066895,733.376343 C1726.401123,731.987610 1733.067017,730.645081 1738.649048,727.579895 C1752.603882,719.916931 1752.389038,698.954102 1738.121460,690.310669 C1728.392090,684.416626 1717.503052,680.302612 1706.858276,676.085022 C1691.212402,669.886047 1675.813599,663.509521 1663.676880,651.226379 C1653.019287,640.440125 1647.622070,627.190125 1648.237183,612.465210 C1649.179321,589.912231 1659.755127,573.183289 1680.683228,562.760315 C1698.673584,553.800415 1717.599609,552.580872 1736.661255,554.323792 C1753.280151,555.843384 1769.426392,560.818298 1785.042480,567.052307 C1789.426025,568.802185 1788.462402,572.533203 1787.820435,575.372498 C1785.934814,583.710876 1783.612427,591.918701 1777.380615,598.456604 C1775.497314,600.432312 1774.313599,600.619385 1772.071533,599.548340 C1759.116333,593.358521 1745.738525,588.970337 1731.209351,587.779968 C1723.190674,587.123047 1715.397705,586.702637 1707.735718,589.079041 C1699.631104,591.592651 1693.820312,597.214600 1692.279541,605.438354 C1690.762817,613.533936 1692.355591,621.662292 1700.529663,626.100952 C1708.550781,630.456604 1716.804443,634.489258 1725.257812,637.920654 C1740.590576,644.144592 1756.088135,649.646301 1769.625000,659.808350 C1781.795410,668.944702 1789.990601,680.195435 1792.431030,695.047241 C1796.551758,720.125366 1788.571045,742.757202 1763.079834,756.853271 C1751.238647,763.401184 1738.213745,765.886475 1724.833252,767.052795 C1706.687378,768.634399 1689.117432,765.774048 1671.398193,760.705322 z"/>
  <path fill="#0D9C57" opacity="1.000000" stroke="none" d=" M1497.312988,558.120544 C1499.844971,558.394897 1501.947998,558.922974 1504.059326,558.958191 C1510.800781,559.070557 1517.545410,558.999817 1525.000000,558.999817 C1525.000000,557.474426 1524.958252,555.365479 1525.006836,553.258606 C1525.312866,539.983032 1525.043823,526.658813 1526.134521,513.447205 C1527.120728,501.500641 1532.038086,497.923828 1546.749146,496.076721 C1550.687134,495.582275 1554.739746,495.993042 1558.739746,496.001953 C1565.523193,496.017029 1566.991699,497.438477 1566.996216,504.074829 C1567.007446,520.741455 1567.000000,537.408081 1567.000000,554.074707 C1567.000000,555.857361 1567.000000,557.640076 1567.000000,560.363098 C1576.012817,559.945312 1584.404297,559.519470 1592.799438,559.183716 C1596.625000,559.030701 1600.457397,559.049500 1604.286865,559.002808 C1605.953369,558.982483 1607.625488,559.079102 1609.285889,558.975525 C1617.728271,558.449158 1618.264282,558.397644 1618.798950,566.698425 C1619.256958,573.811035 1618.448364,581.028625 1617.799316,588.163330 C1617.704224,589.209778 1615.387817,590.868774 1614.100586,590.867432 C1599.643066,590.852600 1585.185791,590.484924 1570.728882,590.503723 C1569.489258,590.505310 1568.058350,592.450867 1567.096191,593.770325 C1566.618652,594.425415 1567.000610,595.710266 1567.000610,596.710205 C1566.999878,634.710144 1566.905151,672.710632 1567.132324,710.709229 C1567.157715,714.970093 1568.312012,719.556213 1570.170654,723.397583 C1573.082397,729.415833 1579.400635,729.708923 1585.151001,729.928894 C1592.640015,730.215393 1600.150024,730.094116 1607.647461,729.957153 C1610.883057,729.898071 1613.051636,730.292053 1613.238403,734.340271 C1613.595093,742.072327 1614.514893,749.779297 1614.827271,757.511658 C1614.872192,758.623779 1612.913208,760.745300 1611.757446,760.837036 C1596.435913,762.053833 1581.099243,763.617554 1565.751953,763.784180 C1554.985962,763.901001 1544.399170,761.155273 1536.136230,753.445679 C1530.294800,747.995667 1527.293335,740.797302 1526.074951,732.976257 C1525.416382,728.750244 1525.052368,724.434204 1525.044556,720.157837 C1524.969971,679.324707 1525.000000,638.491394 1525.000000,597.658142 C1525.000000,595.687622 1525.000000,593.717163 1525.000000,590.999817 C1516.486816,590.999817 1508.379883,590.782837 1500.292236,591.084167 C1495.705444,591.255005 1493.613159,590.144653 1493.891602,585.053162 C1494.294556,577.683716 1493.834717,570.269287 1494.136841,562.890198 C1494.202881,561.274841 1495.927124,559.727356 1497.312988,558.120544 z"/>
  <path fill="#D97800" opacity="1.000000" stroke="none" d=" M1520.329102,235.734161 C1522.360229,239.767029 1524.774170,243.351776 1525.787231,247.296310 C1526.876465,251.537659 1526.949219,256.116241 1526.954712,260.548309 C1527.023682,316.196228 1526.952759,371.844360 1527.088501,427.492035 C1527.099487,432.000977 1526.187744,434.195587 1521.187866,434.083221 C1510.337769,433.839355 1499.478271,433.963043 1488.623047,434.022430 C1483.937256,434.048035 1482.925049,431.563141 1482.933594,427.326508 C1483.036377,376.343781 1483.050049,325.360718 1482.940674,274.378052 C1482.926025,267.492615 1481.891357,260.582367 1474.157471,257.753265 C1471.159912,256.656738 1467.803345,256.144318 1464.601440,256.105591 C1460.759155,256.059174 1459.033447,254.454483 1459.015259,250.801819 C1458.977661,243.250351 1458.771118,235.685928 1459.179077,228.156357 C1459.273315,226.417328 1461.454590,223.440781 1462.855835,223.330826 C1477.926392,222.148071 1493.277710,219.301498 1507.840332,225.286682 C1512.525513,227.212280 1516.043213,231.978027 1520.329102,235.734161 z"/>
  <path fill="#E58101" opacity="1.000000" stroke="none" d=" M1522.939941,175.016022 C1522.878662,176.095566 1522.817261,177.175110 1522.337891,178.675049 C1521.206543,180.331711 1520.493042,181.567993 1519.779541,182.804276 C1515.974365,184.536697 1512.299194,187.253326 1508.334351,187.776810 C1501.979614,188.615845 1495.398682,188.407578 1488.979126,187.864655 C1484.429932,187.479904 1479.433594,186.711914 1475.696289,184.401276 C1473.216675,182.868195 1471.528809,178.357941 1471.377686,175.092941 C1471.014160,167.232452 1471.180908,159.230942 1472.374756,151.477448 C1472.798462,148.726486 1476.813843,146.528595 1479.977539,144.045654 C1483.543335,143.148407 1486.321289,142.283737 1489.099243,141.419098 C1494.724976,141.375732 1500.350830,141.332352 1506.579834,141.654694 C1510.138062,142.682602 1513.092896,143.344833 1516.047852,144.007019 C1517.245239,144.474548 1518.442505,144.942093 1519.775391,146.059158 C1520.779419,147.791870 1521.647827,148.875031 1522.516357,149.958191 C1522.648682,151.342270 1522.781006,152.726364 1522.780640,154.880768 C1522.745239,162.106064 1522.842651,168.561035 1522.939941,175.016022 z"/>
  <path fill="#6D4410" opacity="1.000000" stroke="none" d=" M1600.093140,257.396912 C1600.423340,258.520660 1600.960571,260.115509 1600.961670,261.710693 C1600.990356,307.186462 1600.965088,352.662262 1600.908936,398.609985 C1600.579956,397.491272 1600.039062,395.900787 1600.038086,394.309967 C1600.008789,348.829407 1600.033691,303.348785 1600.093140,257.396912 z"/>
  <path fill="#A8691E" opacity="1.000000" stroke="none" d=" M1523.239502,174.714386 C1522.842651,168.561035 1522.745239,162.106064 1522.802002,155.299103 C1523.150391,161.435669 1523.344727,167.924194 1523.239502,174.714386 z"/>
  <path fill="#9F5D0F" opacity="1.000000" stroke="none" d=" M1515.817627,143.715210 C1513.092896,143.344833 1510.138062,142.682602 1507.036011,141.723694 C1509.788452,142.092453 1512.687988,142.757919 1515.817627,143.715210 z"/>
  <path fill="#9F5D0F" opacity="1.000000" stroke="none" d=" M1488.721680,141.336502 C1486.321289,142.283737 1483.543335,143.148407 1480.335449,143.995682 C1482.718384,143.070160 1485.531250,142.162048 1488.721680,141.336502 z"/>
  <path fill="#A8691E" opacity="1.000000" stroke="none" d=" M1520.106323,182.777878 C1520.493042,181.567993 1521.206543,180.331711 1522.229736,179.065979 C1521.837402,180.274841 1521.135254,181.513153 1520.106323,182.777878 z"/>
  <path fill="#A8691E" opacity="1.000000" stroke="none" d=" M1522.493408,149.660690 C1521.647827,148.875031 1520.779419,147.791870 1519.912842,146.362442 C1520.766602,147.131851 1521.618530,148.247513 1522.493408,149.660690 z"/>
  <path fill="#000000" opacity="1.000000" stroke="none" d=" M443.531708,661.552124 C443.934387,662.163269 444.130798,662.945679 444.327271,663.728027 C443.893158,663.385315 443.459015,663.042603 442.974060,662.388916 C443.057312,661.959656 443.191406,661.841492 443.531708,661.552124 z"/>
</svg>