<svg version="1.1" id="Layer_1" xmlns="http://www.w3.org/2000/svg" xmlns:xlink="http://www.w3.org/1999/xlink" x="0px" y="0px"
	 width="180" height="180" viewBox="0 0 784 786" enable-background="new 0 0 784 786" xml:space="preserve">
<path fill="none" opacity="1.000000" stroke="none" 
	d="
M423.000000,787.000000 
	C282.000000,787.000000 141.500000,787.000000 1.000000,787.000000 
	C1.000000,525.000000 1.000000,263.000000 1.000000,1.000000 
	C262.333344,1.000000 523.666687,1.000000 785.000000,1.000000 
	C785.000000,263.000000 785.000000,525.000000 785.000000,787.000000 
	C664.500000,787.000000 544.000000,787.000000 423.000000,787.000000 
M306.054871,700.528503 
	C324.461670,706.901184 342.710938,713.786499 361.319305,719.503052 
	C380.114807,725.277283 399.239075,729.996704 418.271851,734.977478 
	C429.691254,737.965942 441.241974,740.450073 452.679138,743.374023 
	C472.237427,748.374207 491.735321,753.610657 511.296539,758.599121 
	C517.549377,760.193726 523.922363,761.317139 531.453491,762.913269 
	C529.998535,752.548035 528.917786,743.786682 527.507690,735.078613 
	C525.828552,724.708984 523.731201,714.406921 522.060852,704.036011 
	C519.840698,690.252441 517.996582,676.407898 515.732117,662.632080 
	C513.681091,650.154724 511.402313,637.711426 509.011871,625.293945 
	C504.545502,602.092896 500.688568,578.736938 495.142334,555.792480 
	C490.170990,535.226196 482.450012,515.496826 473.347168,496.250824 
	C462.405060,473.115936 449.686401,451.296661 433.876343,431.104095 
	C420.253998,413.705597 404.770752,398.235931 387.691040,384.494812 
	C377.039032,375.924866 365.258179,368.554626 353.301178,361.866547 
	C341.049988,355.013855 328.336426,348.616364 315.153931,343.893494 
	C298.540894,337.941467 281.438904,333.000000 264.190002,329.283295 
	C248.970276,326.003845 233.294235,324.631042 217.748871,323.169342 
	C210.729462,322.509308 203.437500,323.055054 196.452072,324.184662 
	C188.892776,325.407074 181.513763,327.839172 174.152664,330.063202 
	C173.308334,330.318298 172.239700,333.199097 172.707794,333.885742 
	C175.856979,338.505249 179.319778,342.919708 182.818054,347.290863 
	C193.185272,360.244812 203.719696,373.066254 213.984802,386.100128 
	C220.659622,394.575348 226.864532,403.419617 233.494537,411.931427 
	C238.337448,418.148895 243.643066,424.004211 248.544846,430.177826 
	C262.098145,447.247559 275.442200,464.484161 289.065369,481.497528 
	C306.030945,502.684998 323.259521,523.661743 340.250641,544.828857 
	C355.798004,564.197449 371.190216,583.690735 386.622955,603.151123 
	C388.547638,605.578125 390.301941,608.140198 392.135193,610.639709 
	C388.284210,608.728271 385.128662,606.344482 382.230011,603.681091 
	C364.753174,587.622620 347.170624,571.673584 329.954315,555.339172 
	C318.103424,544.095337 306.577698,532.488098 295.291656,520.675354 
	C284.057983,508.917419 273.176208,496.814636 262.374023,484.655243 
	C248.923035,469.514160 235.663422,454.201965 222.409851,438.886871 
	C208.108673,422.361176 193.931290,405.728363 179.658752,389.177734 
	C170.812195,378.919128 161.847763,368.762146 153.011414,358.494812 
	C143.125076,347.007507 133.275192,335.488037 123.497711,323.908020 
	C111.505302,309.704803 99.603683,295.424896 87.664673,281.176575 
	C85.949142,279.129211 84.462646,278.481934 81.828728,280.414154 
	C77.465477,283.614960 72.702316,286.300140 67.972015,288.961517 
	C64.323227,291.014435 64.587738,293.388916 66.780701,296.237000 
	C73.490036,304.950684 80.204735,313.660217 86.906715,322.379547 
	C100.147491,339.605957 113.419304,356.808929 126.534821,374.130219 
	C127.442268,375.328674 127.697968,377.545837 127.350334,379.084442 
	C125.042305,389.299469 120.780869,399.393524 120.389824,409.650269 
	C119.709656,427.490143 120.375748,445.529572 122.348198,463.277435 
	C124.060616,478.685486 127.761551,493.961639 131.668045,509.014648 
	C136.783371,528.725769 144.631332,547.480774 154.171173,565.513794 
	C165.616806,587.149353 179.785156,606.862610 196.375443,624.778625 
	C213.292236,643.047180 232.186920,659.181458 253.526627,671.995117 
	C270.372437,682.110352 288.078339,690.793213 306.054871,700.528503 
M504.862274,168.270477 
	C524.619446,164.851898 544.376648,161.433319 564.133850,158.014725 
	C555.100037,161.881973 545.848083,164.939102 536.598267,168.002609 
	C523.117676,172.467316 509.631531,176.915344 496.161194,181.410721 
	C485.672485,184.911041 475.217010,188.511154 464.723572,191.997040 
	C452.660278,196.004425 440.548309,199.866302 428.502075,203.923737 
	C420.942047,206.470093 413.515411,209.416168 405.938049,211.906387 
	C392.265198,216.399750 378.499969,220.611664 364.820007,225.083923 
	C355.377136,228.170990 346.046906,231.602356 336.606262,234.696533 
	C317.718048,240.887115 298.761078,246.868439 279.884430,253.093506 
	C263.141357,258.614990 246.479645,264.382751 229.756821,269.966339 
	C225.658005,271.334900 224.742004,273.194763 227.362839,276.651276 
	C229.689758,279.720154 232.377289,282.549347 235.130142,285.256012 
	C252.559280,302.392670 273.883118,313.147339 296.256989,322.035431 
	C312.816742,328.613861 329.683868,334.258850 347.246826,337.686523 
	C361.450439,340.458527 375.603668,343.391632 390.188690,343.013031 
	C392.852203,342.943909 395.519836,343.054688 398.185486,343.045959 
	C409.945557,343.007477 421.912598,344.325989 433.417175,342.587982 
	C450.729980,339.972595 467.936493,336.569214 484.875427,331.398254 
	C508.786926,324.098724 531.158203,313.738892 552.316284,300.909637 
	C580.222534,283.988678 605.692383,263.796112 627.901917,239.681030 
	C642.243652,224.108871 656.864563,208.794113 671.227722,193.241531 
	C689.598877,173.348984 707.851440,153.346634 726.122681,133.362045 
	C731.402954,127.586609 736.583496,121.719681 741.785522,115.873138 
	C743.381104,114.079773 743.787231,112.091011 741.140198,111.134705 
	C735.024841,108.925339 728.784729,107.063828 722.623596,104.977501 
	C712.564758,101.571327 702.514038,98.139915 692.486511,94.642860 
	C680.562012,90.484268 668.709351,86.115677 656.745789,82.074219 
	C642.395508,77.226517 627.946655,72.671585 613.568542,67.905258 
	C604.894409,65.029823 596.362366,61.695625 587.611450,59.088215 
	C565.781433,52.583817 543.932495,46.073097 521.119080,43.812874 
	C508.306549,42.543488 495.518280,40.621017 482.676544,40.147984 
	C462.298828,39.397362 441.975616,40.550301 421.772125,43.902790 
	C404.598877,46.752464 387.819885,51.014194 371.533356,56.985592 
	C355.436890,62.887302 339.922821,70.138474 325.298370,79.234589 
	C309.089935,89.315910 293.732697,100.485687 279.884705,113.641388 
	C261.581146,131.029953 245.305359,150.046982 231.781799,171.501068 
	C224.139984,183.624207 218.011108,196.203827 213.994293,209.912766 
	C213.466660,211.713501 212.032471,214.063812 210.470490,214.619110 
	C196.172150,219.702515 181.706711,224.313797 167.380890,229.322647 
	C151.838409,234.756882 136.385269,240.447586 120.917931,246.094238 
	C119.467636,246.623703 118.194778,247.639145 116.923508,248.380005 
	C119.108765,253.554672 121.075356,258.208893 123.039803,262.864014 
	C125.279938,268.172424 126.917068,268.845428 132.560562,267.169739 
	C135.994019,266.150269 139.559204,265.566528 142.976822,264.502960 
	C159.145462,259.471283 175.262024,254.271851 191.438538,249.265915 
	C208.888550,243.865875 226.356186,238.518600 243.872208,233.337830 
	C252.783264,230.702194 261.813507,228.468079 270.796783,226.078461 
	C283.565735,222.681808 296.374634,219.430176 309.106171,215.899307 
	C331.266724,209.753479 353.375061,203.419708 375.516968,197.206375 
	C393.659790,192.115234 411.715607,186.660736 430.007599,182.172852 
	C442.693298,179.060455 455.712494,177.304184 468.586731,174.964294 
	C480.401001,172.817047 492.220642,170.699646 504.862274,168.270477 
z"/>
<path fill="#0D9C57" opacity="1.000000" stroke="none" 
	d="
M305.728577,700.320374 
	C288.078339,690.793213 270.372437,682.110352 253.526627,671.995117 
	C232.186920,659.181458 213.292236,643.047180 196.375443,624.778625 
	C179.785156,606.862610 165.616806,587.149353 154.171173,565.513794 
	C144.631332,547.480774 136.783371,528.725769 131.668045,509.014648 
	C127.761551,493.961639 124.060616,478.685486 122.348198,463.277435 
	C120.375748,445.529572 119.709656,427.490143 120.389824,409.650269 
	C120.780869,399.393524 125.042305,389.299469 127.350334,379.084442 
	C127.697968,377.545837 127.442268,375.328674 126.534821,374.130219 
	C113.419304,356.808929 100.147491,339.605957 86.906715,322.379547 
	C80.204735,313.660217 73.490036,304.950684 66.780701,296.237000 
	C64.587738,293.388916 64.323227,291.014435 67.972015,288.961517 
	C72.702316,286.300140 77.465477,283.614960 81.828728,280.414154 
	C84.462646,278.481934 85.949142,279.129211 87.664673,281.176575 
	C99.603683,295.424896 111.505302,309.704803 123.497711,323.908020 
	C133.275192,335.488037 143.125076,347.007507 153.011414,358.494812 
	C161.847763,368.762146 170.812195,378.919128 179.658752,389.177734 
	C193.931290,405.728363 208.108673,422.361176 222.409851,438.886871 
	C235.663422,454.201965 248.923035,469.514160 262.374023,484.655243 
	C273.176208,496.814636 284.057983,508.917419 295.291656,520.675354 
	C306.577698,532.488098 318.103424,544.095337 329.954315,555.339172 
	C347.170624,571.673584 364.753174,587.622620 382.230011,603.681091 
	C385.128662,606.344482 388.284210,608.728271 392.135193,610.639709 
	C390.301941,608.140198 388.547638,605.578125 386.622955,603.151123 
	C371.190216,583.690735 355.798004,564.197449 340.250641,544.828857 
	C323.259521,523.661743 306.030945,502.684998 289.065369,481.497528 
	C275.442200,464.484161 262.098145,447.247559 248.544846,430.177826 
	C243.643066,424.004211 238.337448,418.148895 233.494537,411.931427 
	C226.864532,403.419617 220.659622,394.575348 213.984802,386.100128 
	C203.719696,373.066254 193.185272,360.244812 182.818054,347.290863 
	C179.319778,342.919708 175.856979,338.505249 172.707794,333.885742 
	C172.239700,333.199097 173.308334,330.318298 174.152664,330.063202 
	C181.513763,327.839172 188.892776,325.407074 196.452072,324.184662 
	C203.437500,323.055054 210.729462,322.509308 217.748871,323.169342 
	C233.294235,324.631042 248.970276,326.003845 264.190002,329.283295 
	C281.438904,333.000000 298.540894,337.941467 315.153931,343.893494 
	C328.336426,348.616364 341.049988,355.013855 353.301178,361.866547 
	C365.258179,368.554626 377.039032,375.924866 387.691040,384.494812 
	C404.770752,398.235931 420.253998,413.705597 433.876343,431.104095 
	C449.686401,451.296661 462.405060,473.115936 473.347168,496.250824 
	C482.450012,515.496826 490.170990,535.226196 495.142334,555.792480 
	C500.688568,578.736938 504.545502,602.092896 509.011871,625.293945 
	C511.402313,637.711426 513.681091,650.154724 515.732117,662.632080 
	C517.996582,676.407898 519.840698,690.252441 522.060852,704.036011 
	C523.731201,714.406921 525.828552,724.708984 527.507690,735.078613 
	C528.917786,743.786682 529.998535,752.548035 531.453491,762.913269 
	C523.922363,761.317139 517.549377,760.193726 511.296539,758.599121 
	C491.735321,753.610657 472.237427,748.374207 452.679138,743.374023 
	C441.241974,740.450073 429.691254,737.965942 418.271851,734.977478 
	C399.239075,729.996704 380.114807,725.277283 361.319305,719.503052 
	C342.710938,713.786499 324.461670,706.901184 305.728577,700.320374 
M394.856964,615.040833 
	C395.144989,614.946716 395.433014,614.852600 395.721008,614.758484 
	C395.362946,614.669067 395.004883,614.579651 394.856964,615.040833 
z"/>
<path fill="#D97800" opacity="1.000000" stroke="none" 
	d="
M504.450104,168.419800 
	C492.220642,170.699646 480.401001,172.817047 468.586731,174.964294 
	C455.712494,177.304184 442.693298,179.060455 430.007599,182.172852 
	C411.715607,186.660736 393.659790,192.115234 375.516968,197.206375 
	C353.375061,203.419708 331.266724,209.753479 309.106171,215.899307 
	C296.374634,219.430176 283.565735,222.681808 270.796783,226.078461 
	C261.813507,228.468079 252.783264,230.702194 243.872208,233.337830 
	C226.356186,238.518600 208.888550,243.865875 191.438538,249.265915 
	C175.262024,254.271851 159.145462,259.471283 142.976822,264.502960 
	C139.559204,265.566528 135.994019,266.150269 132.560562,267.169739 
	C126.917068,268.845428 125.279938,268.172424 123.039803,262.864014 
	C121.075356,258.208893 119.108765,253.554672 116.923508,248.380005 
	C118.194778,247.639145 119.467636,246.623703 120.917931,246.094238 
	C136.385269,240.447586 151.838409,234.756882 167.380890,229.322647 
	C181.706711,224.313797 196.172150,219.702515 210.470490,214.619110 
	C212.032471,214.063812 213.466660,211.713501 213.994293,209.912766 
	C218.011108,196.203827 224.139984,183.624207 231.781799,171.501068 
	C245.305359,150.046982 261.581146,131.029953 279.884705,113.641388 
	C293.732697,100.485687 309.089935,89.315910 325.298370,79.234589 
	C339.922821,70.138474 355.436890,62.887302 371.533356,56.985592 
	C387.819885,51.014194 404.598877,46.752464 421.772125,43.902790 
	C441.975616,40.550301 462.298828,39.397362 482.676544,40.147984 
	C495.518280,40.621017 508.306549,42.543488 521.119080,43.812874 
	C543.932495,46.073097 565.781433,52.583817 587.611450,59.088215 
	C596.362366,61.695625 604.894409,65.029823 613.568542,67.905258 
	C627.946655,72.671585 642.395508,77.226517 656.745789,82.074219 
	C668.709351,86.115677 680.562012,90.484268 692.486511,94.642860 
	C702.514038,98.139915 712.564758,101.571327 722.623596,104.977501 
	C728.784729,107.063828 735.024841,108.925339 741.140198,111.134705 
	C743.787231,112.091011 743.381104,114.079773 741.785522,115.873138 
	C736.583496,121.719681 731.402954,127.586609 726.122681,133.362045 
	C707.851440,153.346634 689.598877,173.348984 671.227722,193.241531 
	C656.864563,208.794113 642.243652,224.108871 627.901917,239.681030 
	C605.692383,263.796112 580.222534,283.988678 552.316284,300.909637 
	C531.158203,313.738892 508.786926,324.098724 484.875427,331.398254 
	C467.936493,336.569214 450.729980,339.972595 433.417175,342.587982 
	C421.912598,344.325989 409.945557,343.007477 398.185486,343.045959 
	C395.519836,343.054688 392.852203,342.943909 390.188690,343.013031 
	C375.603668,343.391632 361.450439,340.458527 347.246826,337.686523 
	C329.683868,334.258850 312.816742,328.613861 296.256989,322.035431 
	C273.883118,313.147339 252.559280,302.392670 235.130142,285.256012 
	C232.377289,282.549347 229.689758,279.720154 227.362839,276.651276 
	C224.742004,273.194763 225.658005,271.334900 229.756821,269.966339 
	C246.479645,264.382751 263.141357,258.614990 279.884430,253.093506 
	C298.761078,246.868439 317.718048,240.887115 336.606262,234.696533 
	C346.046906,231.602356 355.377136,228.170990 364.820007,225.083923 
	C378.499969,220.611664 392.265198,216.399750 405.938049,211.906387 
	C413.515411,209.416168 420.942047,206.470093 428.502075,203.923737 
	C440.548309,199.866302 452.660278,196.004425 464.723572,191.997040 
	C475.217010,188.511154 485.672485,184.911041 496.161194,181.410721 
	C509.631531,176.915344 523.117676,172.467316 536.598267,168.002609 
	C545.848083,164.939102 555.100037,161.881973 564.133850,158.014725 
	C544.376648,161.433319 524.619446,164.851898 504.450104,168.419800 
z"/>
<path fill="#000000" opacity="1.000000" stroke="none" 
	d="
M394.751892,614.765503 
	C395.004883,614.579651 395.362946,614.669067 395.721008,614.758484 
	C395.433014,614.852600 395.144989,614.946716 394.751892,614.765503 
z"/>
</svg>